<?xml version="1.0" standalone="no"?>
<!DOCTYPE svg PUBLIC "-//W3C//DTD SVG 20010904//EN"
 "http://www.w3.org/TR/2001/REC-SVG-20010904/DTD/svg10.dtd">
<svg version="1.0" xmlns="http://www.w3.org/2000/svg"
 width="625.000000pt" height="434.000000pt" viewBox="0 0 625.000000 434.000000"
 preserveAspectRatio="xMidYMid meet">
<metadata>
Created by potrace 1.16, written by Peter Selinger 2001-2019
</metadata>
<g transform="translate(0.000000,434.000000) scale(0.100000,-0.100000)"
fill="#000000" stroke="none">
<path d="M4719 3064 c-7 -16 -18 -43 -25 -61 -8 -17 -14 -34 -14 -39 0 -7 -43
-106 -60 -136 -6 -10 -10 -23 -10 -30 0 -11 -29 -80 -51 -120 -5 -10 -9 -23
-9 -29 0 -7 -11 -27 -25 -45 -14 -18 -25 -37 -25 -42 0 -8 -60 -130 -90 -182
-4 -8 -15 -31 -24 -50 -9 -19 -30 -57 -46 -85 -17 -27 -33 -58 -36 -67 -4 -10
-10 -18 -15 -18 -5 0 -9 -6 -9 -14 0 -12 -140 -229 -169 -263 -6 -7 -11 -16
-11 -20 0 -5 -10 -19 -22 -33 -13 -14 -50 -59 -83 -100 -54 -68 -135 -160
-160 -181 -5 -5 -30 -26 -55 -48 -125 -108 -378 -268 -461 -292 -24 -7 -49
-16 -55 -21 -14 -10 -149 -57 -183 -63 -13 -2 -27 -8 -30 -12 -3 -4 -17 -9
-31 -11 -58 -6 -99 -11 -160 -21 -233 -38 -537 20 -732 139 -26 17 -51 30 -54
30 -5 0 -39 25 -84 63 -8 6 -30 23 -50 36 -41 27 -230 220 -230 234 0 6 -17
33 -38 61 -21 28 -60 92 -86 141 -56 106 -66 119 -66 83 0 -15 4 -29 9 -32 5
-3 12 -23 16 -43 8 -50 102 -243 121 -250 7 -3 12 -8 10 -12 -3 -4 9 -22 25
-40 16 -19 29 -38 29 -42 0 -9 189 -200 234 -236 15 -13 31 -23 36 -23 4 0 13
-6 19 -14 7 -8 26 -21 44 -30 18 -9 39 -21 47 -25 8 -5 31 -17 50 -25 19 -9
42 -20 50 -25 8 -5 26 -13 40 -18 14 -6 42 -18 63 -27 21 -9 51 -16 67 -16 16
0 31 -4 34 -9 3 -4 27 -11 53 -14 48 -6 88 -14 88 -17 0 -7 313 -6 327 1 9 5
49 12 90 15 40 4 78 10 83 14 6 4 29 10 52 13 24 2 48 9 55 14 7 6 27 13 43
16 60 11 90 20 95 28 5 7 81 37 109 43 8 1 17 8 19 14 2 7 15 12 28 12 13 0
24 4 24 9 0 5 8 11 18 15 17 5 52 26 62 36 10 10 90 60 96 60 25 0 374 308
374 330 0 4 18 26 40 48 22 22 40 44 40 50 0 6 4 12 8 14 13 5 92 114 92 126
0 6 6 15 14 19 14 8 40 49 72 111 10 19 23 36 31 39 7 3 13 11 13 19 0 7 16
39 35 71 19 32 35 63 35 69 0 7 7 15 16 18 9 3 14 13 11 20 -3 8 1 20 9 26 8
7 14 21 14 32 0 10 7 21 15 24 8 4 15 14 16 23 0 9 9 30 20 46 10 17 21 37 25
45 6 16 12 28 36 75 17 33 33 70 42 98 7 23 48 22 78 -2 12 -11 39 -34 59 -50
20 -17 40 -31 43 -31 4 0 4 28 1 63 -3 34 -8 94 -11 132 -9 124 -42 406 -48
412 -3 3 -11 -7 -17 -23z"/>
</g>
</svg>
